<mxfile host="app.diagrams.net" modified="2024-06-12T08:10:25.657Z" agent="Mozilla/5.0 (Macintosh; Intel Mac OS X 10_15_7) AppleWebKit/605.1.15 (KHTML, like Gecko) Version/17.5 Safari/605.1.15" version="24.5.3" etag="9p5AQyZhvlgI4F7390-z" type="github">
  <diagram name="Page-1" id="lKbQUw9RVPmazEnuOnoC">
    <mxGraphModel>
      <root>
        <mxCell id="0" />
        <mxCell id="1" parent="0" />
      </root>
    </mxGraphModel>
  </diagram>
</mxfile>
